# xmcd CD database file
#
# Track frame offsets:
#	183
#	10950
#	23000
#	34865
#	47765
#	60193
#	72733
#	82495
#	91265
#	102298
#	121943
#	133870
#
# Disc length: 1920 seconds
#
# Revision: 1
# Processed by: cddbd v1.5.1PL0 Copyright (c) Steve Scherf et al.
# Submitted via: CDex 1.51
#
DISCID=a1077e0c
DTITLE=Billie Jo Spears - Country Greats
DYEAR=1990
DGENRE=Country
TTITLE0=I'm so lonesome I could cry
TTITLE1=Look what they've done to my song ma
TTITLE2=Ease the want in me
TTITLE3=Dallas
TTITLE4=Sunshine
TTITLE5=The cheatin' kind
TTITLE6=Danny
TTITLE7=You're my man
TTITLE8=If it ain't love
TTITLE9=I''l take a melody
TTITLE10=My own kind
TTITLE11=It makes no difference now
EXTD=YEAR: 1990
EXTT0=
EXTT1=
EXTT2=
EXTT3=
EXTT4=
EXTT5=
EXTT6=
EXTT7=
EXTT8=
EXTT9=
EXTT10=
EXTT11=
PLAYORDER=
